<svg xmlns="http://www.w3.org/2000/svg" width="24.03" height="21.36" viewBox="0 0 24.03 21.36">
  <path id="house-solid" d="M24.022,10.659A1.348,1.348,0,0,1,22.687,12H21.352l.029,6.679a3,3,0,0,1-.021.338v.676a1.668,1.668,0,0,1-1.669,1.669h-.668c-.046,0-.092-.038-.138,0-.058-.033-.117,0-.175,0H16.354a1.668,1.668,0,0,1-1.669-1.669V16.02a1.334,1.334,0,0,0-1.335-1.335H10.68A1.334,1.334,0,0,0,9.345,16.02v3.671A1.668,1.668,0,0,1,7.676,21.36H5.344c-.063,0-.125,0-.188-.008s-.1.008-.15.008H4.339A1.669,1.669,0,0,1,2.67,19.692V15.019c0-.038,0-.079,0-.117V12H1.337A1.322,1.322,0,0,1,0,10.659a1.355,1.355,0,0,1,.418-1L11.114.334A1.2,1.2,0,0,1,12.032,0a1.4,1.4,0,0,1,.88.293L23.563,9.658a1.133,1.133,0,0,1,.459,1Z" fill="#23b574"/>
</svg>
