<svg xmlns="http://www.w3.org/2000/svg" width="24.03" height="16.821" viewBox="0 0 24.03 16.821">
  <path id="money-bills-solid" d="M3.6,34.4a2.4,2.4,0,0,1,2.4-2.4H21.627a2.4,2.4,0,0,1,2.4,2.4v8.41a2.4,2.4,0,0,1-2.4,2.4H6.007a2.4,2.4,0,0,1-2.4-2.4Zm2.4,8.41h2.4a2.4,2.4,0,0,0-2.4-2.4Zm0-8.41v2.4a2.4,2.4,0,0,0,2.4-2.4ZM21.627,40.41a2.4,2.4,0,0,0-2.4,2.4h2.4Zm-2.4-6.007a2.4,2.4,0,0,0,2.4,2.4V34.4Zm-5.407,1.2a3,3,0,1,0,3,3A3,3,0,0,0,13.817,35.6ZM1.8,44.315a2.7,2.7,0,0,0,2.7,2.7H19.524a.9.9,0,1,1,0,1.8H4.506A4.505,4.505,0,0,1,0,44.315V35.3a.9.9,0,0,1,1.8,0Z" transform="translate(0 -32)" fill="#23b574" opacity="0.45"/>
</svg>
