<svg xmlns="http://www.w3.org/2000/svg" width="24.03" height="21.36" viewBox="0 0 24.03 21.36">
  <path id="ship-solid" d="M8.009,1.335A1.334,1.334,0,0,1,9.344,0h5.34a1.334,1.334,0,0,1,1.335,1.335V2.67h2a2,2,0,0,1,2,2v5.34l1.852.617a1.332,1.332,0,0,1,.48,2.248l-4.213,3.867a4.46,4.46,0,0,1-2.123.63,4.489,4.489,0,0,1-2.47-.851,2.672,2.672,0,0,0-3.07,0,4.473,4.473,0,0,1-2.47.851,4.421,4.421,0,0,1-2.123-.634L1.672,12.877a1.333,1.333,0,0,1,.48-2.248L4,9.974V4.635a2.027,2.027,0,0,1,2-2h2ZM6.674,9.123l4.5-1.5a2.706,2.706,0,0,1,1.685,0l4.5,1.5V5.34H6.674Zm9.344,9.565A5.9,5.9,0,0,0,19.247,17.6h0a1.329,1.329,0,0,1,1.635.071A5.242,5.242,0,0,0,23,18.722a1.339,1.339,0,0,1,1,1.606,1.355,1.355,0,0,1-1.606,1,8.2,8.2,0,0,1-2.428-1.043,8.461,8.461,0,0,1-3.942,1.076,8.254,8.254,0,0,1-3.354-.788c-.246-.108-.463-.221-.651-.321-.188.1-.4.213-.651.321a8.254,8.254,0,0,1-3.354.788,8.341,8.341,0,0,1-3.942-1.076,8.188,8.188,0,0,1-2.429,1.043,1.336,1.336,0,0,1-.606-2.6,5.25,5.25,0,0,0,2.11-1.051A1.329,1.329,0,0,1,4.776,17.6h0a5.912,5.912,0,0,0,3.229,1.089A5.837,5.837,0,0,0,11.242,17.6a1.328,1.328,0,0,1,1.543,0,5.741,5.741,0,0,0,3.233,1.089Z" transform="translate(0)" fill="#23b574" opacity="0.45"/>
</svg>
