<svg xmlns="http://www.w3.org/2000/svg" width="24.029" height="22.527" viewBox="0 0 24.029 22.527">
  <path id="sliders-solid" d="M0,34.773a1.5,1.5,0,0,1,1.5-1.5H4.067a3.752,3.752,0,0,1,3.442-2.253,3.793,3.793,0,0,1,3.44,2.253H22.527a1.5,1.5,0,0,1,0,3H10.949a3.793,3.793,0,0,1-3.44,2.253,3.752,3.752,0,0,1-3.442-2.253H1.5a1.5,1.5,0,0,1-1.5-1.5Zm9.011,0a1.5,1.5,0,1,0-1.5,1.5A1.5,1.5,0,0,0,9.011,34.773ZM16.52,23.509a3.793,3.793,0,0,1,3.44,2.253h2.567a1.5,1.5,0,0,1,0,3H19.96a3.793,3.793,0,0,1-3.44,2.253,3.747,3.747,0,0,1-3.44-2.253H1.5a1.5,1.5,0,0,1,0-3H13.08A3.747,3.747,0,0,1,16.52,23.509Zm1.5,3.755a1.5,1.5,0,1,0-1.5,1.5A1.5,1.5,0,0,0,18.022,27.264Zm4.505-9.011a1.5,1.5,0,0,1,0,3H12.451a3.793,3.793,0,0,1-3.44,2.253,3.747,3.747,0,0,1-3.44-2.253H1.5a1.5,1.5,0,0,1,0-3H5.571A3.751,3.751,0,0,1,9.011,16a3.8,3.8,0,0,1,3.44,2.253Zm-15.018,1.5a1.5,1.5,0,1,0,1.5-1.5A1.5,1.5,0,0,0,7.509,19.755Z" transform="translate(0 -16)" fill="#23b574" opacity="0.45"/>
</svg>
